<?xml version="1.0" encoding="utf-8"?>
<!-- Generator: Adobe Illustrator 16.0.0, SVG Export Plug-In . SVG Version: 6.00 Build 0)  -->
<!DOCTYPE svg PUBLIC "-//W3C//DTD SVG 1.1//EN" "http://www.w3.org/Graphics/SVG/1.1/DTD/svg11.dtd">
<svg version="1.1" id="color" xmlns="http://www.w3.org/2000/svg" xmlns:xlink="http://www.w3.org/1999/xlink" x="0px" y="0px"
	 width="32px" height="32px" viewBox="0 0 512 512" enable-background="new 0 0 512 512" xml:space="preserve">
<path fill="#FAFAFA" d="M213.333,512C95.701,512,0,416.299,0,298.666C0,181.035,95.701,85.333,213.333,85.333
	c117.631,0,213.333,95.701,213.333,213.333C426.667,416.299,330.965,512,213.333,512z"/>
<g>
	<path fill="#F44336" d="M213.333,512C95.701,512,0,416.299,0,298.666C0,181.035,95.701,85.333,213.333,85.333
		c117.631,0,213.333,95.701,213.333,213.333C426.667,416.299,330.965,512,213.333,512z M213.333,117.333
		C113.344,117.333,32,198.677,32,298.666C32,398.656,113.344,480,213.333,480c99.989,0,181.333-81.344,181.333-181.334
		C394.667,198.677,313.322,117.333,213.333,117.333z"/>
	<path fill="#F44336" d="M213.333,437.333c-76.459,0-138.667-62.208-138.667-138.667C74.667,222.208,136.875,160,213.333,160
		C289.792,160,352,222.208,352,298.666C352,375.125,289.792,437.333,213.333,437.333z M213.333,192
		c-58.816,0-106.667,47.851-106.667,106.666c0,58.816,47.851,106.667,106.667,106.667S320,357.482,320,298.666
		C320,239.851,272.149,192,213.333,192z"/>
	<path fill="#F44336" d="M213.333,362.666c-35.286,0-64-28.714-64-64c0-35.285,28.714-64,64-64c35.285,0,64,28.714,64,64
		C277.334,333.952,248.619,362.666,213.333,362.666z M213.333,266.666c-17.643,0-32,14.357-32,32c0,17.644,14.357,32,32,32
		c17.643,0,32-14.356,32-32C245.333,281.023,230.976,266.666,213.333,266.666z"/>
</g>
<path fill="#607D8B" d="M213.333,314.666c-4.096,0-8.192-1.557-11.307-4.693c-6.251-6.25-6.251-16.383,0-22.634l160-160
	c6.251-6.251,16.385-6.251,22.635,0c6.251,6.25,6.251,16.384,0,22.634l-160,160C221.525,313.109,217.429,314.666,213.333,314.666
	L213.333,314.666z"/>
<path fill="#2196F3" d="M432,149.333h-53.333c-8.832,0-16-7.168-16-16V80c0-4.245,1.685-8.32,4.693-11.307l64-64
	c4.586-4.587,11.477-5.931,17.429-3.478c5.974,2.475,9.878,8.32,9.878,14.784v37.333H496c6.464,0,12.31,3.904,14.784,9.877
	c2.475,5.973,1.109,12.864-3.478,17.429l-64,64C440.32,147.648,436.245,149.333,432,149.333L432,149.333z"/>
<path fill="#546D79" d="M362.667,126.741c-0.214,0.192-0.427,0.405-0.641,0.619l-160,160c-6.251,6.252-6.251,16.385,0,22.635
	L367.36,144.661c-2.901-2.901-4.693-6.912-4.693-11.328V126.741z"/>
<path fill="#1D83D4" d="M442.667,0c-4.16,0-8.256,1.621-11.328,4.693l-64,64c-2.987,2.987-4.672,7.062-4.672,11.307v46.741v6.592
	c0,4.416,1.792,8.426,4.693,11.307l91.307-91.307V16c0-6.464-3.904-12.31-9.878-14.784C446.806,0.405,444.736,0,442.667,0z"/>
</svg>
